<svg width="116" height="20" viewBox="0 0 116 20" fill="none" xmlns="http://www.w3.org/2000/svg">
<path d="M11.5 0.0405273L23 19.9596H0L11.5 0.0405273Z" fill="white"/>
<path d="M30.3797 16V4.72656H35.0359C37.5672 4.72656 39.0672 6.07031 39.0672 8.33594V8.35156C39.0672 9.83594 38.2781 11.0703 37.0281 11.5625L39.4031 16H36.7313L34.6297 11.9141H32.7391V16H30.3797ZM32.7391 10.125H34.7781C35.95 10.125 36.6531 9.46094 36.6531 8.35156V8.33594C36.6531 7.25781 35.9109 6.57031 34.7469 6.57031H32.7391V10.125ZM42.0522 16.1328C40.3725 16.1328 39.2397 15.0781 39.2397 13.6016V13.5859C39.2397 12.0625 40.4194 11.1719 42.4975 11.0391L44.5678 10.9141V10.3984C44.5678 9.65625 44.0834 9.19531 43.1928 9.19531C42.3413 9.19531 41.8256 9.59375 41.7163 10.1328L41.7006 10.2031H39.6147L39.6225 10.1094C39.7475 8.5625 41.0756 7.45312 43.2866 7.45312C45.4506 7.45312 46.8491 8.57031 46.8491 10.2578V16H44.5678V14.75H44.5209C44.0444 15.6094 43.1538 16.1328 42.0522 16.1328ZM41.4975 13.4844C41.4975 14.1016 42.0053 14.4688 42.7944 14.4688C43.8178 14.4688 44.5678 13.8125 44.5678 12.9375V12.3359L42.8413 12.4453C41.9584 12.5 41.4975 12.875 41.4975 13.4688V13.4844ZM47.6856 18.7344V7.625H49.9669V9.08594H50.0216C50.4747 8.07031 51.3888 7.45312 52.5763 7.45312C54.7013 7.45312 55.9981 9.07812 55.9981 11.8047V11.8125C55.9981 14.5312 54.7013 16.1719 52.6075 16.1719C51.4122 16.1719 50.4669 15.5625 50.0138 14.5703H49.9669V18.7344H47.6856ZM51.8263 14.2812C52.9591 14.2812 53.6778 13.3359 53.6778 11.8125V11.8047C53.6778 10.2734 52.9591 9.34375 51.8263 9.34375C50.7169 9.34375 49.9591 10.2969 49.9591 11.8125V11.8203C49.9591 13.3281 50.7169 14.2812 51.8263 14.2812ZM57.7331 6.54688C57.0456 6.54688 56.5144 6.00781 56.5144 5.35938C56.5144 4.71094 57.0456 4.17188 57.7331 4.17188C58.4206 4.17188 58.9519 4.71094 58.9519 5.35938C58.9519 6.00781 58.4206 6.54688 57.7331 6.54688ZM56.5925 16V7.625H58.8738V16H56.5925ZM62.8666 16.1719C60.7572 16.1719 59.4603 14.5312 59.4603 11.8125V11.8047C59.4603 9.07812 60.7572 7.45312 62.8666 7.45312C64.0541 7.45312 64.9916 8.0625 65.4447 9.07812H65.4916V4.72656H67.7728V16H65.4916V14.5703H65.4447C64.9994 15.5625 64.0775 16.1719 62.8666 16.1719ZM63.6322 14.2812C64.7416 14.2812 65.4994 13.3281 65.4994 11.8125V11.8047C65.4994 10.2969 64.7338 9.34375 63.6322 9.34375C62.4994 9.34375 61.7806 10.2734 61.7806 11.8047V11.8125C61.7806 13.3359 62.4916 14.2812 63.6322 14.2812ZM72.6953 16.1875C70.2578 16.1875 68.6094 14.9922 68.4688 13.0625L68.4609 12.9531H69.8672L69.8828 13.0625C70.0469 14.1953 71.1406 14.8906 72.7734 14.8906C74.3984 14.8906 75.4219 14.1562 75.4219 12.9922V12.9844C75.4219 11.9922 74.7734 11.4375 73.2266 11.0938L71.9766 10.8203C69.7734 10.3359 68.7422 9.34375 68.7422 7.69531V7.6875C68.75 5.83594 70.3906 4.53906 72.7109 4.53906C74.9141 4.53906 76.5234 5.8125 76.6484 7.65625L76.6562 7.77344H75.25L75.2344 7.66406C75.0625 6.51562 74.1016 5.83594 72.6719 5.83594C71.1641 5.84375 70.1797 6.5625 70.1797 7.64844V7.65625C70.1797 8.57812 70.8594 9.15625 72.3281 9.47656L73.5781 9.75C75.8906 10.2578 76.8594 11.1953 76.8594 12.9141V12.9219C76.8594 14.9219 75.2734 16.1875 72.6953 16.1875ZM79.2663 16L76.9928 7.875H78.3444L79.9694 14.4844H80.0006L81.8366 7.875H83.1491L84.9928 14.4844H85.0241L86.6491 7.875H87.9928L85.7272 16H84.3444L82.5084 9.71094H82.4772L80.6491 16H79.2663ZM90.6888 16.1562C89.0716 16.1562 87.9856 15.1797 87.9856 13.7031V13.6875C87.9856 12.3047 89.0638 11.4375 90.9309 11.3281L93.2591 11.1953V10.5156C93.2591 9.52344 92.6106 8.92188 91.4778 8.92188C90.4309 8.92188 89.7747 9.42188 89.6184 10.1484L89.6028 10.2188H88.2903L88.2981 10.1328C88.4153 8.79688 89.5794 7.71875 91.4934 7.71875C93.4153 7.71875 94.6184 8.75781 94.6184 10.3828V16H93.2591V14.6797H93.2278C92.7513 15.5703 91.7747 16.1562 90.6888 16.1562ZM89.3763 13.7031C89.3763 14.4844 90.0169 14.9766 90.9934 14.9766C92.2747 14.9766 93.2591 14.0938 93.2591 12.9141V12.25L91.0872 12.3828C90.0013 12.4453 89.3763 12.9297 89.3763 13.6875V13.7031ZM95.705 18.7344V7.875H97.0644V9.25H97.0956C97.6034 8.30469 98.5097 7.71875 99.6738 7.71875C101.752 7.71875 103.127 9.375 103.127 11.9375V11.9453C103.127 14.5078 101.736 16.1562 99.6972 16.1562C98.5488 16.1562 97.6034 15.5781 97.0956 14.6406H97.0644V18.7344H95.705ZM99.4081 14.9531C100.846 14.9531 101.736 13.7969 101.736 11.9453V11.9375C101.736 10.0703 100.846 8.92188 99.4081 8.92188C98.0331 8.92188 97.0566 10.1172 97.0566 11.9375V11.9453C97.0566 13.7578 98.0409 14.9531 99.4081 14.9531ZM114.902 8.82031V8.875C114.902 11.2812 113.019 13.1641 110.62 13.1641H110.566C108.159 13.1641 106.277 11.2812 106.277 8.875V8.82031C106.277 6.42188 108.159 4.53906 110.566 4.53906H110.62C113.019 4.53906 114.902 6.42188 114.902 8.82031ZM113.933 8.82031C113.933 6.96875 112.472 5.50781 110.62 5.50781H110.566C108.706 5.50781 107.245 6.96875 107.245 8.82031V8.875C107.245 10.7344 108.706 12.1953 110.566 12.1953H110.62C112.472 12.1953 113.933 10.7344 113.933 8.875V8.82031ZM108.87 11.0391V6.66406H110.792C111.855 6.66406 112.472 7.1875 112.472 8.125V8.13281C112.472 8.6875 112.152 9.17969 111.652 9.375L112.605 11.0391H111.441L110.613 9.54688H109.894V11.0391H108.87ZM109.902 8.71875H110.691C111.144 8.71875 111.425 8.48438 111.425 8.125C111.425 7.76562 111.128 7.53125 110.675 7.53125H109.902V8.71875Z" fill="white"/>
</svg>
